<mxfile host="Electron" modified="2023-04-13T12:05:21.162Z" agent="Mozilla/5.0 (Windows NT 10.0; Win64; x64) AppleWebKit/537.36 (KHTML, like Gecko) draw.io/21.1.2 Chrome/106.0.5249.199 Electron/21.4.3 Safari/537.36" etag="jpTNpwy67XfFoGk-mSU5" version="21.1.2" type="device">
  <diagram name="Page-1" id="2QlDV3mX__z3Gz6JU3-s">
    <mxGraphModel dx="498" dy="516" grid="1" gridSize="10" guides="1" tooltips="1" connect="1" arrows="1" fold="1" page="1" pageScale="1" pageWidth="1200" pageHeight="1600" math="0" shadow="0">
      <root>
        <mxCell id="0" />
        <mxCell id="1" parent="0" />
        <mxCell id="HtVzoWKTyRuRvDFnU5wd-1" value="begin" style="ellipse;whiteSpace=wrap;html=1;" vertex="1" parent="1">
          <mxGeometry x="285" y="10" width="120" height="20" as="geometry" />
        </mxCell>
        <mxCell id="HtVzoWKTyRuRvDFnU5wd-2" value="input y and x" style="shape=parallelogram;perimeter=parallelogramPerimeter;whiteSpace=wrap;html=1;fixedSize=1;" vertex="1" parent="1">
          <mxGeometry x="295" y="40" width="100" height="20" as="geometry" />
        </mxCell>
        <mxCell id="HtVzoWKTyRuRvDFnU5wd-3" value="" style="endArrow=classic;html=1;rounded=0;exitX=0.5;exitY=1;exitDx=0;exitDy=0;entryX=0.5;entryY=0;entryDx=0;entryDy=0;" edge="1" parent="1" source="HtVzoWKTyRuRvDFnU5wd-1" target="HtVzoWKTyRuRvDFnU5wd-2">
          <mxGeometry width="50" height="50" relative="1" as="geometry">
            <mxPoint x="185" y="190" as="sourcePoint" />
            <mxPoint x="345" y="40" as="targetPoint" />
          </mxGeometry>
        </mxCell>
        <mxCell id="HtVzoWKTyRuRvDFnU5wd-4" value="" style="endArrow=classic;html=1;rounded=0;entryX=0.5;entryY=0;entryDx=0;entryDy=0;" edge="1" parent="1" target="HtVzoWKTyRuRvDFnU5wd-12">
          <mxGeometry width="50" height="50" relative="1" as="geometry">
            <mxPoint x="345" y="150" as="sourcePoint" />
            <mxPoint x="415" y="170" as="targetPoint" />
          </mxGeometry>
        </mxCell>
        <mxCell id="HtVzoWKTyRuRvDFnU5wd-5" value="" style="endArrow=classic;startArrow=classic;html=1;rounded=0;entryX=0.5;entryY=0;entryDx=0;entryDy=0;exitX=0.5;exitY=0;exitDx=0;exitDy=0;" edge="1" parent="1" source="HtVzoWKTyRuRvDFnU5wd-17">
          <mxGeometry width="50" height="50" relative="1" as="geometry">
            <mxPoint x="140" y="170" as="sourcePoint" />
            <mxPoint x="530" y="160" as="targetPoint" />
            <Array as="points">
              <mxPoint x="190" y="150" />
              <mxPoint x="410" y="150" />
              <mxPoint x="530" y="150" />
            </Array>
          </mxGeometry>
        </mxCell>
        <mxCell id="HtVzoWKTyRuRvDFnU5wd-7" value="" style="endArrow=classic;html=1;rounded=0;exitX=1;exitY=0.5;exitDx=0;exitDy=0;entryX=0.5;entryY=0;entryDx=0;entryDy=0;" edge="1" parent="1" source="HtVzoWKTyRuRvDFnU5wd-17" target="HtVzoWKTyRuRvDFnU5wd-9">
          <mxGeometry width="50" height="50" relative="1" as="geometry">
            <mxPoint x="160" y="270" as="sourcePoint" />
            <mxPoint x="200" y="250" as="targetPoint" />
            <Array as="points">
              <mxPoint x="230" y="203" />
              <mxPoint x="250" y="203" />
            </Array>
          </mxGeometry>
        </mxCell>
        <mxCell id="HtVzoWKTyRuRvDFnU5wd-9" value="check if nrighbour" style="shape=process;whiteSpace=wrap;html=1;backgroundOutline=1;" vertex="1" parent="1">
          <mxGeometry x="220" y="252.5" width="60" height="30" as="geometry" />
        </mxCell>
        <mxCell id="HtVzoWKTyRuRvDFnU5wd-12" value="if x,y not fibbo" style="rhombus;whiteSpace=wrap;html=1;" vertex="1" parent="1">
          <mxGeometry x="305" y="162.5" width="80" height="80" as="geometry" />
        </mxCell>
        <mxCell id="HtVzoWKTyRuRvDFnU5wd-13" value="" style="endArrow=classic;html=1;rounded=0;entryX=0.5;entryY=0;entryDx=0;entryDy=0;" edge="1" parent="1" target="HtVzoWKTyRuRvDFnU5wd-12">
          <mxGeometry width="50" height="50" relative="1" as="geometry">
            <mxPoint x="345" y="162.5" as="sourcePoint" />
            <mxPoint x="255" y="182.5" as="targetPoint" />
          </mxGeometry>
        </mxCell>
        <mxCell id="HtVzoWKTyRuRvDFnU5wd-14" value="if xis fibbo&lt;br&gt;y not or vice versa" style="rhombus;whiteSpace=wrap;html=1;" vertex="1" parent="1">
          <mxGeometry x="490" y="157.5" width="80" height="105" as="geometry" />
        </mxCell>
        <mxCell id="HtVzoWKTyRuRvDFnU5wd-17" value="if x and&amp;nbsp;&lt;br&gt;y are fibbo" style="rhombus;whiteSpace=wrap;html=1;" vertex="1" parent="1">
          <mxGeometry x="150" y="162.5" width="80" height="80" as="geometry" />
        </mxCell>
        <mxCell id="HtVzoWKTyRuRvDFnU5wd-18" style="edgeStyle=orthogonalEdgeStyle;rounded=0;orthogonalLoop=1;jettySize=auto;html=1;exitX=0.5;exitY=1;exitDx=0;exitDy=0;" edge="1" parent="1" source="HtVzoWKTyRuRvDFnU5wd-9" target="HtVzoWKTyRuRvDFnU5wd-9">
          <mxGeometry relative="1" as="geometry" />
        </mxCell>
        <mxCell id="HtVzoWKTyRuRvDFnU5wd-19" value="" style="endArrow=classic;html=1;rounded=0;exitX=1;exitY=0.5;exitDx=0;exitDy=0;entryX=0.6;entryY=-0.02;entryDx=0;entryDy=0;entryPerimeter=0;" edge="1" parent="1" source="HtVzoWKTyRuRvDFnU5wd-12" target="HtVzoWKTyRuRvDFnU5wd-22">
          <mxGeometry width="50" height="50" relative="1" as="geometry">
            <mxPoint x="165" y="372.5" as="sourcePoint" />
            <mxPoint x="315" y="272.5" as="targetPoint" />
            <Array as="points">
              <mxPoint x="422" y="203" />
            </Array>
          </mxGeometry>
        </mxCell>
        <mxCell id="HtVzoWKTyRuRvDFnU5wd-22" value="output&lt;br&gt;xandy&amp;nbsp;&lt;br&gt;not&lt;br&gt;fibonacci" style="shape=parallelogram;perimeter=parallelogramPerimeter;whiteSpace=wrap;html=1;fixedSize=1;" vertex="1" parent="1">
          <mxGeometry x="365" y="255" width="95" height="50" as="geometry" />
        </mxCell>
        <mxCell id="HtVzoWKTyRuRvDFnU5wd-23" value="output x is fibbo and&lt;br&gt;y is not" style="shape=parallelogram;perimeter=parallelogramPerimeter;whiteSpace=wrap;html=1;fixedSize=1;" vertex="1" parent="1">
          <mxGeometry x="530" y="250" width="130" height="42.5" as="geometry" />
        </mxCell>
        <mxCell id="HtVzoWKTyRuRvDFnU5wd-25" value="" style="endArrow=classic;html=1;rounded=0;exitX=1;exitY=0.5;exitDx=0;exitDy=0;entryX=0.5;entryY=0;entryDx=0;entryDy=0;" edge="1" parent="1" source="HtVzoWKTyRuRvDFnU5wd-14" target="HtVzoWKTyRuRvDFnU5wd-23">
          <mxGeometry width="50" height="50" relative="1" as="geometry">
            <mxPoint x="610" y="190" as="sourcePoint" />
            <mxPoint x="660" y="140" as="targetPoint" />
            <Array as="points">
              <mxPoint x="595" y="210" />
            </Array>
          </mxGeometry>
        </mxCell>
        <mxCell id="HtVzoWKTyRuRvDFnU5wd-29" value="" style="endArrow=none;html=1;rounded=0;exitX=0;exitY=0.5;exitDx=0;exitDy=0;entryX=0.5;entryY=1;entryDx=0;entryDy=0;" edge="1" parent="1" source="HtVzoWKTyRuRvDFnU5wd-17" target="HtVzoWKTyRuRvDFnU5wd-9">
          <mxGeometry width="50" height="50" relative="1" as="geometry">
            <mxPoint x="160" y="420" as="sourcePoint" />
            <mxPoint x="210" y="370" as="targetPoint" />
            <Array as="points">
              <mxPoint x="140" y="203" />
              <mxPoint x="140" y="320" />
              <mxPoint x="250" y="320" />
            </Array>
          </mxGeometry>
        </mxCell>
        <mxCell id="HtVzoWKTyRuRvDFnU5wd-30" value="" style="endArrow=none;html=1;rounded=0;exitX=0;exitY=0.5;exitDx=0;exitDy=0;" edge="1" parent="1" source="HtVzoWKTyRuRvDFnU5wd-12">
          <mxGeometry width="50" height="50" relative="1" as="geometry">
            <mxPoint x="315" y="452.5" as="sourcePoint" />
            <mxPoint x="425" y="302.5" as="targetPoint" />
            <Array as="points">
              <mxPoint x="295" y="202.5" />
              <mxPoint x="295" y="320" />
              <mxPoint x="425" y="320" />
            </Array>
          </mxGeometry>
        </mxCell>
        <mxCell id="HtVzoWKTyRuRvDFnU5wd-32" value="" style="endArrow=none;html=1;rounded=0;entryX=0;entryY=0.5;entryDx=0;entryDy=0;exitX=0.5;exitY=1;exitDx=0;exitDy=0;" edge="1" parent="1" source="HtVzoWKTyRuRvDFnU5wd-23" target="HtVzoWKTyRuRvDFnU5wd-14">
          <mxGeometry width="50" height="50" relative="1" as="geometry">
            <mxPoint x="460" y="430" as="sourcePoint" />
            <mxPoint x="510" y="380" as="targetPoint" />
            <Array as="points">
              <mxPoint x="595" y="320" />
              <mxPoint x="480" y="320" />
              <mxPoint x="480" y="210" />
            </Array>
          </mxGeometry>
        </mxCell>
        <mxCell id="HtVzoWKTyRuRvDFnU5wd-33" value="" style="endArrow=none;html=1;rounded=0;" edge="1" parent="1">
          <mxGeometry width="50" height="50" relative="1" as="geometry">
            <mxPoint x="190" y="320" as="sourcePoint" />
            <mxPoint x="550" y="320" as="targetPoint" />
            <Array as="points">
              <mxPoint x="190" y="340" />
              <mxPoint x="550" y="340" />
            </Array>
          </mxGeometry>
        </mxCell>
        <mxCell id="HtVzoWKTyRuRvDFnU5wd-34" value="" style="endArrow=none;html=1;rounded=0;" edge="1" parent="1">
          <mxGeometry width="50" height="50" relative="1" as="geometry">
            <mxPoint x="350" y="320" as="sourcePoint" />
            <mxPoint x="350" y="340" as="targetPoint" />
          </mxGeometry>
        </mxCell>
        <mxCell id="HtVzoWKTyRuRvDFnU5wd-35" value="" style="endArrow=classic;html=1;rounded=0;" edge="1" parent="1">
          <mxGeometry width="50" height="50" relative="1" as="geometry">
            <mxPoint x="350" y="340" as="sourcePoint" />
            <mxPoint x="350" y="360" as="targetPoint" />
          </mxGeometry>
        </mxCell>
        <mxCell id="HtVzoWKTyRuRvDFnU5wd-36" value="end" style="ellipse;whiteSpace=wrap;html=1;" vertex="1" parent="1">
          <mxGeometry x="300" y="350" width="100" height="40" as="geometry" />
        </mxCell>
        <mxCell id="HtVzoWKTyRuRvDFnU5wd-37" value="" style="endArrow=classic;html=1;rounded=0;exitX=0.5;exitY=1;exitDx=0;exitDy=0;entryX=0.5;entryY=0;entryDx=0;entryDy=0;" edge="1" parent="1" source="HtVzoWKTyRuRvDFnU5wd-2" target="HtVzoWKTyRuRvDFnU5wd-38">
          <mxGeometry width="50" height="50" relative="1" as="geometry">
            <mxPoint x="250" y="140" as="sourcePoint" />
            <mxPoint x="220" y="40" as="targetPoint" />
          </mxGeometry>
        </mxCell>
        <mxCell id="HtVzoWKTyRuRvDFnU5wd-38" value="check whether x and y are fibonacci numbers" style="shape=process;whiteSpace=wrap;html=1;backgroundOutline=1;" vertex="1" parent="1">
          <mxGeometry x="285" y="80" width="120" height="60" as="geometry" />
        </mxCell>
        <mxCell id="HtVzoWKTyRuRvDFnU5wd-40" value="" style="endArrow=classic;html=1;rounded=0;exitX=0.5;exitY=1;exitDx=0;exitDy=0;" edge="1" parent="1" source="HtVzoWKTyRuRvDFnU5wd-38">
          <mxGeometry width="50" height="50" relative="1" as="geometry">
            <mxPoint x="160" y="120" as="sourcePoint" />
            <mxPoint x="345" y="150" as="targetPoint" />
          </mxGeometry>
        </mxCell>
      </root>
    </mxGraphModel>
  </diagram>
</mxfile>
